<?xml version="1.0" encoding="utf-8"?>
<!-- Generator: Adobe Illustrator 25.0.1, SVG Export Plug-In . SVG Version: 6.00 Build 0)  -->
<svg version="1.1" id="Layer_1" xmlns="http://www.w3.org/2000/svg" xmlns:xlink="http://www.w3.org/1999/xlink" x="0px" y="0px"
	 viewBox="0 0 645.1 738.3" style="enable-background:new 0 0 645.1 738.3;" xml:space="preserve">
<style type="text/css">
	.st0{fill:#FFFFFF;}
</style>
<g>
	<path class="st0" d="M440.5,470.3c-0.8-0.8-1.2-1.9-1.2-3.2V270.3c0-1.4,0.4-2.5,1.2-3.2c0.8-0.8,1.9-1.2,3.2-1.2h96.2
		c15.9,0,29.9,2.7,42.1,8.2c12.2,5.5,21.7,13.2,28.3,23.2c6.7,10,10,21.5,10,34.7v73.4c0,13.1-3.3,24.7-10,34.7
		s-16.1,17.7-28.3,23.2s-26.3,8.2-42.1,8.2h-96.2C442.4,471.4,441.3,471.1,440.5,470.3z M497.2,421.7h44.6c6.4,0,11.6-2.5,15.7-7.4
		c4.1-5,6.3-11.5,6.5-19.5v-52.2c0-8.1-2.1-14.6-6.2-19.5c-4.1-5-9.5-7.4-16.3-7.4h-44.3c-0.9,0-1.4,0.5-1.4,1.4v103.4
		C495.8,421.3,496.3,421.7,497.2,421.7z M152.8,179.9h-77c-0.4,0-0.8,0.3-0.9,0.7L68.1,203c-0.6,1.9-2.4,3.3-4.4,3.3H6.6
		c-3.2,0-5.4-3.2-4.3-6.2l71.9-195c0.7-1.8,2.4-3,4.3-3h71.4c1.9,0,3.6,1.2,4.3,3l71.9,195c1.1,3-1.1,6.2-4.3,6.2h-57.1
		c-2,0-3.8-1.3-4.4-3.3l-6.8-22.4C153.6,180.1,153.2,179.9,152.8,179.9z M92.4,128.4h43.9c0.7,0,1.1-0.6,0.9-1.3l-21.9-67.9
		c-0.3-0.9-1.5-0.9-1.8,0l-21.9,67.9C91.2,127.8,91.7,128.4,92.4,128.4z M568.4,709.7h-77c-0.4,0-0.8,0.3-0.9,0.7l-6.8,22.4
		c-0.6,1.9-2.4,3.3-4.4,3.3h-57.1c-3.2,0-5.4-3.2-4.3-6.2l71.9-195c0.7-1.8,2.4-3,4.3-3h71.4c1.9,0,3.6,1.2,4.3,3l71.9,195
		c1.1,3-1.1,6.2-4.3,6.2h-57.1c-2,0-3.8-1.3-4.4-3.3l-6.8-22.4C569.2,710,568.8,709.7,568.4,709.7z M507.9,658.3h43.9
		c0.7,0,1.1-0.6,0.9-1.3l-21.9-67.9c-0.3-0.9-1.5-0.9-1.8,0L507,657C506.8,657.6,507.3,658.3,507.9,658.3z M294.9,2h52.8
		c2.5,0,4.5,2,4.5,4.5v195.1c0,2.5-2,4.5-4.5,4.5h-52.8c-2.5,0-4.5-2-4.5-4.5V6.5C290.4,4,292.4,2,294.9,2z M20,271.1
		c0-2.5,2.1-4.6,4.6-4.6H144c42.3,0,60.6,28.2,60.6,52.1c0,23.7-13.1,40.3-31,45.8c-0.9,0.3-0.9,1.6,0.1,1.8c20.1,5,35,24.4,35,49.1
		c0,28.5-19.3,55.4-60.3,55.4H24.6c-2.5,0-4.6-2.1-4.6-4.6V271.1z M129.6,342.5c6.4,0,12.2-5.8,12.2-13.2c0-7-5.8-12.6-12.2-12.6
		h-49c-0.5,0-0.9,0.4-0.9,0.9v23.9c0,0.5,0.4,0.9,0.9,0.9h49V342.5z M131.5,420.6c8.9,0,14.4-6.1,14.4-13.8
		c0-7.3-5.5-14.1-14.4-14.1H80.6c-0.5,0-0.9,0.4-0.9,0.9v26c0,0.5,0.4,0.9,0.9,0.9L131.5,420.6L131.5,420.6z M295,266.5h51.9
		c2.9,0,5.3,2.4,5.3,5.3v193.6c0,2.9-2.4,5.3-5.3,5.3h-51.2c-2.9,0-5.3-2.4-5.3-5.3V271.1C290.4,268.6,292.4,266.5,295,266.5z
		 M295,531.8h52.7c2.5,0,4.6,2.1,4.6,4.6v195.1c0,2.5-2.1,4.6-4.6,4.6H295c-2.5,0-4.6-2.1-4.6-4.6V536.4
		C290.4,533.9,292.4,531.8,295,531.8z"/>
</g>
</svg>
